<svg width="64" height="64" viewBox="0 0 64 64" xmlns="http://www.w3.org/2000/svg">
  <defs>
    <linearGradient id="g" x1="0" y1="0" x2="1" y2="1">
      <stop offset="0%" stop-color="#00f7ff"/>
      <stop offset="100%" stop-color="#b69fff"/>
    </linearGradient>
  </defs>
  <circle cx="32" cy="32" r="30" fill="#111"/>
  <rect x="20" y="20" width="24" height="24" rx="2" fill="none" stroke="url(#g)" stroke-width="3"/>
  <rect x="27" y="27" width="10" height="10" fill="url(#g)"/>
  <g stroke="url(#g)" stroke-width="2">
    <line x1="26" y1="14" x2="26" y2="20"/>
    <line x1="32" y1="14" x2="32" y2="20"/>
    <line x1="38" y1="14" x2="38" y2="20"/>
    <line x1="26" y1="44" x2="26" y2="50"/>
    <line x1="32" y1="44" x2="32" y2="50"/>
    <line x1="38" y1="44" x2="38" y2="50"/>
    <line x1="14" y1="26" x2="20" y2="26"/>
    <line x1="14" y1="32" x2="20" y2="32"/>
    <line x1="14" y1="38" x2="20" y2="38"/>
    <line x1="44" y1="26" x2="50" y2="26"/>
    <line x1="44" y1="32" x2="50" y2="32"/>
    <line x1="44" y1="38" x2="50" y2="38"/>
  </g>
</svg>
